<svg xmlns="http://www.w3.org/2000/svg" xmlns:xlink="http://www.w3.org/1999/xlink" version="1.1" width="256" height="256" viewBox="0 0 256 256" xml:space="preserve">

<defs>
</defs>
<g style="stroke: none; stroke-width: 0; stroke-dasharray: none; stroke-linecap: butt; stroke-linejoin: miter; stroke-miterlimit: 10; fill: none; fill-rule: nonzero; opacity: 1;" transform="translate(1.4065934065934016 1.4065934065934016) scale(2.81 2.81)" >
	<path d="M 58.799 16.466 L 16.466 58.799 c -1.059 1.059 -2.776 1.059 -3.835 0 L 0.794 46.962 c -1.059 -1.059 -1.059 -2.776 0 -3.835 L 43.127 0.794 c 1.059 -1.059 2.776 -1.059 3.835 0 l 11.837 11.837 C 59.858 13.69 59.858 15.407 58.799 16.466 z" style="stroke: none; stroke-width: 1; stroke-dasharray: none; stroke-linecap: butt; stroke-linejoin: miter; stroke-miterlimit: 10; fill: rgb(255,255,255); fill-rule: nonzero; opacity: 1;" transform=" matrix(1 0 0 1 0 0) " stroke-linecap="round" />
	<path d="M 31.201 16.466 l 42.333 42.333 c 1.059 1.059 2.776 1.059 3.835 0 l 11.837 -11.837 c 1.059 -1.059 1.059 -2.776 0 -3.835 L 46.873 0.794 c -1.059 -1.059 -2.776 -1.059 -3.835 0 L 31.201 12.631 C 30.142 13.69 30.142 15.407 31.201 16.466 z" style="stroke: none; stroke-width: 1; stroke-dasharray: none; stroke-linecap: butt; stroke-linejoin: miter; stroke-miterlimit: 10; fill: rgb(255,255,255); fill-rule: nonzero; opacity: 1;" transform=" matrix(1 0 0 1 0 0) " stroke-linecap="round" />
	<path d="M 56.082 27.421 l 0 59.868 c 0 1.498 -1.214 2.712 -2.712 2.712 L 36.63 90 c -1.498 0 -2.712 -1.214 -2.712 -2.712 l 0 -59.868 c 0 -1.498 1.214 -2.712 2.712 -2.712 l 16.739 0 C 54.867 24.709 56.082 25.923 56.082 27.421 z" style="stroke: none; stroke-width: 1; stroke-dasharray: none; stroke-linecap: butt; stroke-linejoin: miter; stroke-miterlimit: 10; fill: rgb(255,255,255); fill-rule: nonzero; opacity: 1;" transform=" matrix(1 0 0 1 0 0) " stroke-linecap="round" />
</g>
</svg>